<svg width="122" height="105" viewBox="0 0 122 105" fill="none" xmlns="http://www.w3.org/2000/svg">
<path d="M59.9304 35.3347L59.8972 35.3181V35.3678L59.9304 35.3347Z" fill="#00AE5B"/>
<path d="M88.7776 86.2194L49.8065 63.7348V53.8926L39.0033 60.1889V69.998L49.8065 76.2115L32.4418 86.2359V73.7592L21.622 67.5126L60.6097 44.9948L69.2092 49.9491V37.4723L60.6097 32.5181L49.8065 38.7647V18.7324L60.6263 24.979L71.4626 18.7324L71.4461 63.7513L62.9129 68.6724L73.7161 74.9191L82.2327 69.998V57.5047L99.5643 67.5126L88.7611 73.7592L88.7776 86.2194ZM82.2493 44.9948V-0.0075531L60.6263 12.4857L39.0033 -0.0075531L39.0199 44.9948L-0.000976562 67.5291L21.622 80.0224V104.992L60.5269 82.425L99.5643 104.959V79.9727L121.187 67.4794L82.2493 44.9948Z" fill="#00AE5B"/>
</svg>
